Coordinates
version=1
nRows=17
nColumns=24
inDegrees=yes

Units are S.I. units (second, meters, Newtons, ...)
Angles are in degrees.

endheader
time	pelvis_tilt	pelvis_list	pelvis_rotation	pelvis_tx	pelvis_ty	pelvis_tz	hip_flexion_r	hip_adduction_r	hip_rotation_r	knee_angle_r	ankle_angle_r	subtalar_angle_r	mtp_angle_r	hip_flexion_l	hip_adduction_l	hip_rotation_l	knee_angle_l	ankle_angle_l	subtalar_angle_l	mtp_angle_l	lumbar_extension	lumbar_bending	lumbar_rotation
      0.80450000	     -0.11808134	     -5.46652449	      1.72893983	     -0.47775244	      1.01277132	      0.33869702	      7.55205501	     11.24006431	      0.49704200	    -11.00436969	     -2.20910902	    -19.46417980	      0.70432644	     17.81875224	     -5.67958765	      2.26248557	    -67.86301115	    -10.45744143	     -8.79367606	      7.21914948	     -3.02527804	      8.59117711	      1.18877475
      0.80866667	     -0.07834388	     -5.36358871	      1.66148356	     -0.47277566	      1.01342762	      0.33888393	      7.02690555	     11.14606669	      0.57694253	    -10.73000299	     -2.04032696	    -19.28206182	      0.61925024	     18.35690908	     -5.52728246	      2.26652437	    -67.74741684	     -9.83950471	     -9.21838807	      6.98589658	     -3.12599563	      8.48314974	      1.32371952
      0.81283333	     -0.09582093	     -5.26961166	      1.59882205	     -0.46779684	      1.01395817	      0.33905691	      6.56400661	     11.05862298	      0.65731441	    -10.45341760	     -1.90085333	    -19.20598518	      0.60747433	     18.94935983	     -5.37913903	      2.28455465	    -67.58787463	     -9.20568990	     -9.57347466	      6.95103203	     -3.13984124	      8.39448049	      1.36366934
      0.81700000	     -0.03119994	     -5.16863622	      1.50603925	     -0.46283922	      1.01459621	      0.33927684	      6.00812965	     10.96721148	      0.76473959	    -10.17234219	     -1.72888882	    -18.99922372	      0.54537858	     19.42293463	     -5.24562888	      2.24631056	    -67.35303050	     -8.63196957	    -10.01666717	      6.77246390	     -3.29075938	      8.27584262	      1.56639022
      0.82116667	     -0.02131742	     -5.07497932	      1.40814674	     -0.45788164	      1.01510900	      0.33951641	      5.52398224	     10.88144614	      0.85209120	     -9.91489644	     -1.58627909	    -18.87933573	      0.51593774	     19.94597156	     -5.12737083	      2.19977916	    -67.07643103	     -8.01406485	    -10.39105726	      6.68722817	     -3.35164847	      8.16015163	      1.64427321
      0.82533333	      0.02192885	     -4.96056347	      1.31358788	     -0.45291850	      1.01566166	      0.33971791	      4.98867727	     10.76742761	      0.94825366	     -9.62923831	     -1.40031162	    -18.64988227	      0.44455005	     20.40388005	     -4.97856338	      2.15597318	    -66.71697981	     -7.48851968	    -10.78708264	      6.47923519	     -3.46064735	      8.03897360	      1.86276783
      0.82950000	      0.01791837	     -4.86659924	      1.20076348	     -0.44798895	      1.01608957	      0.33996555	      4.52356657	     10.67753891	      1.04304106	     -9.37525584	     -1.25914832	    -18.52029766	      0.41102341	     20.90829381	     -4.86922282	      2.08581011	    -66.32935022	     -6.89514751	    -11.12990605	      6.37965834	     -3.50805407	      7.92448449	      1.93693152
      0.83366667	      0.06515652	     -4.76209278	      1.09733634	     -0.44304219	      1.01658018	      0.34016981	      3.98429587	     10.57119126	      1.14674451	     -9.08555180	     -1.08416738	    -18.30553302	      0.34298723	     21.32757839	     -4.74093546	      2.02651395	    -65.86062704	     -6.38137373	    -11.47105373	      6.17920659	     -3.62072255	      7.81786139	      2.13446003
      0.83783333	      0.01837773	     -4.69159925	      1.01254327	     -0.43812620	      1.01685866	      0.34036525	      3.56123878	     10.50109733	      1.22756776	     -8.81269750	     -0.94853147	    -18.21842177	      0.33369361	     21.85754262	     -4.64098564	      2.00579913	    -65.37620091	     -5.82837578	    -11.73699900	      6.14691427	     -3.60557268	      7.74094026	      2.17058389
      0.84200000	      0.04710340	     -4.58546202	      0.84922524	     -0.43321942	      1.01724407	      0.34064434	      3.06705395	     10.39237729	      1.37326641	     -8.57552774	     -0.79781466	    -18.02439280	      0.29405806	     22.25287998	     -4.54542758	      1.86660525	    -64.80108615	     -5.28850438	    -12.03843295	      6.02271853	     -3.71634557	      7.63143727	      2.32803382
      0.84616667	      0.06383565	     -4.49414410	      0.75645911	     -0.42831465	      1.01755218	      0.34080377	      2.58528859	     10.28680063	      1.39894470	     -8.31792116	     -0.61992722	    -17.64118801	     -0.74691390	     22.66577877	     -4.42619453	      1.82250924	    -64.19587443	     -4.72881643	    -12.23462582	      3.13892132	     -3.80370399	      7.52456996	      2.47012859
      0.85033333	      0.07011278	     -4.41699783	      0.62673196	     -0.42341694	      1.01781154	      0.34104491	      2.10260450	     10.20910106	      1.55166183	     -8.04500489	     -0.46050535	    -17.56493569	     -0.76116268	     23.06574035	     -4.35239631	      1.73027905	    -63.53123430	     -4.23830083	    -12.42832062	      3.13137789	     -3.87371376	      7.43354557	      2.63799280
      0.85450000	      0.03723903	     -4.33602491	      0.49216619	     -0.41853616	      1.01797354	      0.34126474	      1.67988338	     10.12070314	      1.67923886	     -7.79949320	     -0.33953614	    -17.44702596	     -0.76912802	     23.48935134	     -4.26918880	      1.64222945	    -62.81315697	     -3.75097994	    -12.60264976	      3.12305856	     -3.90122866	      7.35713096	      2.72965320
      0.85866667	      0.02655296	     -4.24987863	      0.36065832	     -0.41363717	      1.01814539	      0.34147274	      1.22685668	     10.02386402	      1.80223849	     -7.54104491	     -0.20623574	    -17.29513286	     -0.77811180	     23.86282172	     -4.18336880	      1.54984816	    -62.03078364	     -3.29818575	    -12.73625482	      3.10669218	     -3.95189446	      7.26385898	      2.85381993
      0.86283333	      0.02614621	     -4.18001152	      0.23627612	     -0.40874299	      1.01827494	      0.34166148	      0.76547303	      9.94229286	      1.91426027	     -7.28355508	     -0.07374597	    -17.13431982	     -0.78829669	     24.21063531	     -4.11441031	      1.46660930	    -61.20434315	     -2.86918010	    -12.83210465	      3.08276121	     -4.01473977	      7.18787941	      2.98616449
      0.86700000	      0.02497469	     -4.10739466	      0.11459898	     -0.40384198	      1.01836427	      0.34183754	      0.30521389	      9.85521824	      2.01881004	     -7.02369664	      0.05984135	    -16.97057995	     -0.79969450	     24.53861383	     -4.04519128	      1.37809446	    -60.32420515	     -2.47166407	    -12.89631062	      3.04980783	     -4.07328365	      7.10750204	      3.11886325
      0.87116667	      0.03438434	     -4.03498777	      0.00216109	     -0.39894471	      1.01844161	      0.34198511	     -0.16601678	      9.76584718	      2.12268351	     -6.76096193	      0.19218056	    -16.79411457	     -0.81674869	     24.83159285	     -3.96730970	      1.30885742	    -59.38350343	     -2.10888328	    -12.93588190	      2.99572404	     -4.15148058	      7.03356811	      3.26796498
